<?xml version="1.0"?>
<svg xmlns="http://www.w3.org/2000/svg" viewBox="0 0 24 24">
    <path d="M 10 2 C 6.1659559 2 2.1663722 6.4503611 2.03125 10.78125 C 2.1474609 10.253516 2.6875 9.7 4 9 C 2.5304412 9.6857941 1.0846019 17.363324 2.90625 21.71875 C 2.6865234 20.328613 5.59375 19.09375 7 19 C 7.5623336 19.632484 8.1992056 20.081982 8.8125 20.375 C 10.161088 21.019326 11.45 21 12 21 C 12.519697 21 13.81655 21.04565 15.15625 20.40625 C 15.834362 20.082606 16.503087 19.517252 17.09375 18.75 C 17.057815 18.832497 17.04105 18.926109 17 19 C 18.40625 19.09375 21.313477 20.328613 21.09375 21.71875 C 22.915398 17.363324 21.469559 9.6857941 20 9 C 21.3125 9.7 21.852539 10.253516 21.96875 10.78125 C 21.833628 6.4503611 17.834044 2 14 2 C 13.1 2 12.5 2.4 12 3 C 11.5 2.4 10.9 2 10 2 z M 10.03125 5.25 C 10.235512 5.7150067 11.053365 6 12 6 C 12.946635 6 13.764488 5.7150067 13.96875 5.25 C 15.057099 5.5453328 15.866138 6.0880116 16.46875 6.8125 C 17.36652 7.8918417 17.832245 9.4461509 17.8125 11.15625 C 17.811995 11.19995 17.8136 11.23732 17.8125 11.28125 L 17.8125 11.3125 L 17.8125 11.96875 L 18.4375 12.21875 C 18.649352 12.30349 18.779032 12.471975 18.875 12.71875 C 18.97097 12.965525 18.980433 13.297019 18.9375 13.46875 L 18.9375 13.5 L 18.90625 13.53125 C 18.795931 14.138003 18.175521 14.657339 17.5 14.71875 L 16.84375 14.75 L 16.65625 15.40625 C 16.070008 17.390452 15.14155 18.183152 14.28125 18.59375 C 13.42095 19.004348 12.580303 19 12 19 C 11.45 19 10.588912 18.993174 9.6875 18.5625 C 8.7860883 18.131826 7.8334091 17.316189 7.15625 15.375 L 6.9375 14.8125 L 6.375 14.71875 C 5.6601484 14.588777 5.1256622 14.053282 5 13.53125 C 4.9885079 13.462297 4.9906496 13.05137 5.09375 12.75 C 5.1968504 12.44863 5.3209308 12.277878 5.46875 12.21875 L 6.09375 11.96875 L 6.09375 11.3125 L 6.09375 11.28125 C 6.09263 11.23753 6.0942267 11.19974 6.09375 11.15625 C 6.0750947 9.4542593 6.5472607 7.9272595 7.46875 6.84375 C 7.572538 6.7217135 7.6968484 6.6124337 7.8125 6.5 L 9.3125 8 L 8.65625 8.65625 L 9.34375 9.34375 L 10 8.6875 L 11.3125 10 L 10.65625 10.65625 L 11.34375 11.34375 L 12 10.6875 L 12.65625 11.34375 L 13.34375 10.65625 L 12.6875 10 L 13.34375 9.34375 L 12.65625 8.65625 L 12 9.3125 L 10.6875 8 L 11.34375 7.34375 L 10.65625 6.65625 L 10 7.3125 L 8.59375 5.90625 C 9.0130467 5.6390106 9.4834953 5.4002867 10.03125 5.25 z M 8.3125 11 C 8.2125 11.8 8.3125 12.60625 9.3125 12.90625 C 10.1125 13.20625 10.6 12.7 11 12 L 8.3125 11 z M 15.6875 11 L 13 12 C 13.4 12.6 13.8875 13.20625 14.6875 12.90625 C 15.6875 12.60625 15.7875 11.8 15.6875 11 z M 10 15 C 10 16.1 10.9 17 12 17 C 13.1 17 14 16.1 14 15 L 10 15 z"/>
</svg>
